<svg width="83" height="82" fill="none" xmlns="http://www.w3.org/2000/svg"><path d="M39.003 17.362c.962-1.667 3.368-1.667 4.33 0l24.493 42.423c.962 1.667-.24 3.75-2.165 3.75H16.675c-1.924 0-3.127-2.083-2.165-3.75l24.493-42.423z" stroke="#fff"/><path d="M45.86 5.363c.962-1.666 3.368-1.666 4.33 0l24.493 42.423c.962 1.667-.24 3.75-2.165 3.75H23.532c-1.924 0-3.127-2.083-2.165-3.75L45.86 5.363z" stroke="#fff"/><path d="M32.147 5.363c.962-1.666 3.368-1.666 4.33 0L60.97 47.786c.962 1.667-.24 3.75-2.165 3.75H9.82c-1.924 0-3.127-2.083-2.165-3.75L32.147 5.363z" stroke="#fff"/></svg>