<svg width="863" height="903" fill="none" xmlns="http://www.w3.org/2000/svg"><path d="M441.596-52.819c157.944 16.27 195.393 162.76 54.99 149.376-160.589-9.987-160.71 106.414 54.989 149.376 155.759 31.023 179.6 176.375 21.042 171.903-131.181-3.699-91.54 86.979 61.691 167.582 119.628 62.928 89.502 87.976 76.041 134.157-15.384 52.777-73.012 122.315 61.183 123.862" stroke="gray"/><path d="M124.681-80.89C305.092-45.593 340.207 86.655 182.789 76.957 2.608 71.55 6.782 179.02 240.896 234.803c184.278 44.664 208.186 175.976 30.151 176.398-137.022-4.022-100.103 82.265 63.627 172.84 137.298 79.394 116.763 111.632 75.444 145.313-64.543 42.113-107.728 110.99 63.208 136.834" stroke="gray"/><path d="M230.322-71.534C403.244-42.579 439.137 94.416 287.39 83.49c-173.65-6.933-170.907 103.514 57.069 155.023 174.771 40.117 198.657 176.109 27.114 174.9-135.075-3.915-97.248 83.836 62.982 171.087 131.408 73.905 107.676 103.746 75.643 141.594-48.157 45.668-96.156 114.765 62.533 132.51" stroke="gray"/><path d="M335.959-62.177c165.433 22.613 202.104 164.355 56.029 152.2-167.12-8.46-165.809 104.964 56.028 152.199 165.266 35.57 189.129 176.242 24.078 173.401-133.127-3.807-94.393 85.408 62.337 169.335 125.518 68.416 98.589 95.861 75.842 137.876-31.771 49.222-84.584 118.54 61.858 128.186" stroke="gray"/></svg>