<svg width="906" height="856" fill="none" xmlns="http://www.w3.org/2000/svg"><path d="M356.596 51.546c-23.947-57.897-142.415-86.488-122.865 28.79 3.205 18.902 3.528 51.449 0 91.066-3.232 36.291-66.499 56.148-85.92 103.04-30.457 73.541 83.421 124.799 65.299 163.458-23.735 50.634-96.412 72.602-136.612 100.304-37.844 26.078-61.949 67.921-71.204 110.941-16.238 75.472 13.23 154.565 94.402 158.5 40.635 1.97 94.227-14.895 161.529-60.475 30.091-20.379 56.624-37.174 80.206-50.754 60.695-34.954 44.377 47.724 116.55 50.754 41.123 1.726 84.074-69.65 116.589-31.577 23.119 27.071 49.65 59.918 87.538 93.688 66.539 59.306 149.73 68.038 161.497-16.603 5.554-39.956-4.807-100.718-40.35-186.79-22.746-55.081 33.831-53.14 40.35-123.724 6.518-70.584-46.787-103.135-8.199-132.348l.773-.585c29.412-22.265 60.781-46.011 77.912-91.62 14.757-39.287 13.347-78.199 0-108.099-14.284-31.999-42.241-53.676-78.685-54.445-36.567-.772-81.68 19.507-130.099 71.528-31.924 34.299-53.544-45.509-110.737-37.351-57.194 8.158-65.143 85.163-99.405 62.829-59.517-38.797-90.524-72.719-118.569-140.527z" stroke="#777" stroke-width="1.199"/><path d="M472.119 367.362c-3.644-8.889-20.628-6.556-21.487 3.077-.979 10.968 4.987 25.26 4.297 36.254-1.331 21.226-9.401 27.268-25.469 38.456-5.759 4.003-9.427 10.427-10.836 17.031-2.471 11.587 2.013 23.729 14.367 24.333 6.184.302 14.34-2.287 24.582-9.284 4.58-3.129 8.618-5.707 12.206-7.792 15.623-9.802 30.163-2.121 35.481 2.944 3.518 4.156 7.556 9.199 13.322 14.383 10.126 9.104 25.46 7.912 24.577-2.549-1.247-14.778-28.398-69.939 0-79.558 13.192-4.468 12.758-14.588 10.727-19.179-2.174-4.912-6.428-8.24-11.974-8.358-5.566-.118-14.784 8.358-19.8 10.981-18.514 9.681-35.034 14.685-49.993-20.739z" stroke="#777" stroke-width="1.199"/><path d="M253.539 105.557C236.188.614 344.449 26.774 366.403 79.851c26.878 64.889 56.593 95.301 112.43 129.726 31.403 20.202 38.959-50.109 91.328-57.751 52.369-7.642 72.376 64.78 101.676 33.58 44.56-47.32 85.994-65.469 119.463-64.324 33.252.907 58.746 20.961 71.625 50.405 12.028 27.534 13.02 63.266-1.007 99.212-18.307 42.727-44.744 69.322-71.593 91.068-35.07 27.051 13.102 56.929 6.717 121.19-6.385 64.261-58.441 62.316-38.206 112.019 31.815 77.842 40.875 132.67 35.501 168.647-10.948 76.779-87.093 68.547-148.203 14.47-35.043-30.844-59.868-60.681-81.615-84.869-29.91-34.451-69.358 30.721-107.191 29.432-66.134-2.44-51.705-77.446-107.302-45.511-21.829 12.489-46.298 27.821-73.958 46.349-62.36 41.416-111.53 55.663-148.277 52.826-73.794-3.878-100.49-76.132-85.55-145.063 8.586-39.404 30.733-77.709 65.428-101.616 38.038-26.213 104.899-46.746 126.616-94.729 16.52-35.668-87.215-82.874-59.619-150.353 17.554-43.233 75.006-61.87 77.991-95.383 3.249-36.478 3.361-66.36.882-83.619z" stroke="#777" stroke-width="1.199"/><path d="M274.235 131.841c-15.126-94.264 82.769-70.62 102.698-22.538 25.673 61.751 54.053 88.553 106.128 118.494 28.497 18.004 35.65-45.382 83.118-52.482 47.467-7.1 65.833 57.699 92.466 29.7 40.636-42.463 78.331-58.424 108.653-56.91 30.012 1.041 53.004 19.406 64.46 46.197 10.69 25.077 11.264 57.511-2.012 89.998-19.307 39.304-40.372 68.636-64.398 89.618-31.501 24.798 11.469 51.906 5.226 109.633-6.242 57.727-53.702 55.785-36.007 99.948 28.04 69.358 35.786 118.072 30.601 149.954-10.114 68.666-79.102 60.962-134.695 12.291-32.145-27.818-55.229-54.547-75.571-75.773-27.263-30.717-63.149 28.037-97.638 27.19-59.998-1.844-47.479-68.932-97.898-40.12-20.043 11.357-42.411 25.176-67.6 41.791-57.327 37.115-102.003 48.702-134.81 45.008-66.306-3.808-90.192-68.986-76.573-131.148 7.905-35.66 28.061-70.301 59.557-91.958 35.821-24.636 96.769-43.664 116.436-88.835 14.895-32.56-78.546-75.558-53.852-136.752 15.661-39.432 67.214-56.785 69.948-87.41 2.965-33.22 3.512-60.338 1.763-75.896z" stroke="#777" stroke-width="1.199"/><path d="M294.037 157.064c-12.924-83.929 74.756-62.716 92.691-19.455 24.507 58.832 51.597 82.124 99.992 107.693 25.636 15.871 32.396-40.821 75.036-47.405 42.64-6.584 59.392 50.83 83.4 25.929 36.774-37.76 70.788-51.593 98.01-49.705 26.817 1.179 47.344 17.92 57.395 42.156 9.368 22.711 9.524 51.965-3.023 81.11-20.337 36.022-36.061 68.187-57.3 88.479-27.98 22.635 9.852 47.07 3.743 98.474-6.109 51.403-49.047 49.458-33.866 88.243 24.309 61.128 30.753 103.908 25.747 131.812-9.294 60.804-71.231 53.6-121.393 10.157-29.298-24.891-50.677-48.611-69.645-66.953-24.658-27.095-57.038 25.454-88.235 25.045-53.956-1.256-43.329-60.671-88.645-34.878-18.29 10.267-38.591 22.622-61.348 37.386-52.384 32.95-92.635 41.921-121.551 37.359-58.92-3.75-80.033-62.089-67.713-117.709 7.235-32.045 25.433-63.147 53.777-82.633 33.661-23.147 88.789-40.739 106.437-83.258 13.291-29.57-69.998-68.515-48.168-123.647 13.792-35.773 59.524-51.905 62.011-79.751 2.687-30.082 3.67-54.535 2.648-68.449z" stroke="#777" stroke-width="1.199"/><path d="M314.727 182.286c-10.699-73.591 66.609-54.809 82.519-16.369 23.298 55.917 49.05 75.696 93.68 96.89 22.728 13.737 29.084-36.258 66.82-42.326 37.736-6.068 52.847 43.957 74.186 22.156 32.847-33.057 63.119-44.759 87.194-42.497 23.574 1.317 41.599 16.435 50.226 38.116 8.031 20.344 7.769 46.417-4.027 72.22-21.332 32.742-31.686 67.75-50.101 87.353-24.409 20.473 8.218 42.234 2.252 87.313-5.965 45.078-44.304 43.129-31.663 76.534 20.534 52.894 25.663 89.737 20.847 113.66-8.46 52.94-63.236 46.236-107.877 8.023-26.399-21.965-46.035-42.673-63.597-58.131-22.008-23.472-50.825 22.871-78.675 22.901-47.818-.666-39.1-52.406-79.235-29.632-16.504 9.176-34.703 20.068-54.987 32.98-47.347 28.783-83.101 35.135-108.076 29.704-51.43-3.695-69.731-55.192-58.732-104.269 6.553-28.429 22.758-55.992 47.902-73.306 31.441-21.66 80.651-37.816 96.249-77.686 11.664-26.579-61.326-61.472-42.399-110.541 11.899-32.114 51.73-47.025 53.966-72.093 2.402-26.943 3.819-48.73 3.528-61z" stroke="#777" stroke-width="1.199"/><path d="M335.404 208.694c-8.475-63.087 58.46-46.779 72.344-13.246 22.086 52.875 46.495 69.098 87.355 85.87 19.82 11.573 25.771-31.614 58.602-37.152 32.832-5.538 46.298 36.987 64.968 18.333 28.919-28.279 55.448-37.825 76.374-35.194 20.332 1.452 35.854 14.914 43.058 33.99 6.693 17.933 6.013 40.766-5.029 63.169-22.321 29.387-27.311 67.157-42.902 86.027-20.838 18.265 6.585 37.304.764 75.956-5.82 38.653-39.558 36.705-29.457 64.654 16.761 44.544 20.576 75.367 15.95 95.257-7.624 44.958-55.237 38.768-94.356 5.871-23.498-18.99-41.389-36.641-57.542-49.179-19.358-19.796-44.611 20.237-69.113 20.705-41.677-.075-34.869-44.024-69.821-24.32-14.716 8.064-30.811 17.468-48.622 28.499-42.307 24.553-73.564 28.272-94.597 21.984-43.939-3.63-59.429-48.171-49.752-90.595 5.87-24.749 20.084-48.712 42.025-63.815 29.217-20.123 72.508-34.808 86.054-71.938 10.038-23.529-52.652-54.291-36.628-97.187 10.006-28.382 43.935-42.04 45.919-64.273 2.119-23.744 3.969-42.817 4.406-53.416z" stroke="#777" stroke-width="1.199"/><path d="M355.187 233.916c-6.268-52.744 50.433-38.867 62.32-10.158 20.919 49.966 44.038 62.673 81.213 75.066 16.953 9.439 22.511-27.05 50.505-32.072 27.995-5.022 39.846 30.11 55.886 14.558 25.051-23.573 47.893-30.987 65.712-27.98 17.132 1.59 30.185 13.428 35.98 29.948 5.369 15.566 4.27 35.218-6.041 54.277-23.357 26.106-22.993 66.73-35.792 84.915-17.311 16.102 4.964 32.467-.723 64.791-5.688 32.324-34.896 30.372-27.312 52.937 13.021 36.305 15.531 61.187 11.085 77.094-6.803 37.088-47.354 31.398-81.032 3.733-20.646-16.062-36.829-30.7-51.607-40.35-16.748-16.171-38.489 17.654-59.694 18.561-35.623.515-30.71-35.755-60.552-19.071-12.96 6.973-26.985 14.913-42.36 24.091-37.354 20.384-64.179 21.481-81.314 14.32-36.539-3.573-49.25-41.271-40.875-77.149 5.2-21.132 17.45-41.553 36.236-54.485 27.053-18.636 64.515-31.885 76.038-66.37 8.431-20.537-44.089-47.246-30.934-84.076 8.134-24.723 36.232-37.16 37.969-56.615 1.839-20.605 4.126-37.011 5.292-45.965z" stroke="#777" stroke-width="1.199"/><path d="M375.838 259.136c-4.046-42.392 42.272-30.949 52.131-7.065 19.696 47.066 41.461 56.254 74.851 64.26 14.042 7.302 19.191-22.483 42.276-26.99 23.084-4.506 33.288 23.226 46.655 10.778 21.116-18.863 40.21-24.143 54.877-20.758 13.886 1.73 24.435 11.945 28.806 25.908 4.032 13.198 2.517 29.667-7.037 45.381-24.327 22.825-18.614 66.327-28.587 83.83-13.739 13.94 3.332 27.63-2.207 53.62-5.54 25.991-30.14 24.034-25.094 41.209 9.248 28.058 10.446 46.991 6.192 58.911-5.965 29.212-39.344 24.02-67.492 1.591-17.739-13.132-32.171-24.754-45.535-31.513-14.094-12.542-32.265 15.07-50.116 16.418-29.476 1.108-26.471-27.475-51.123-13.814a1288.037 1288.037 0 00-35.985 19.68c-32.302 16.211-54.623 14.679-67.816 6.641-29.043-3.519-38.942-34.369-31.891-63.695 4.515-17.513 14.771-34.393 30.35-45.15 24.817-17.153 56.351-28.968 65.82-60.811 6.803-17.547-35.408-40.2-25.158-70.963 6.24-21.062 28.433-32.281 29.919-48.957 1.554-17.464 4.272-31.203 6.164-38.511z" stroke="#777" stroke-width="1.199"/><path d="M395.913 284.354c-1.842-32.027 34.343-23.019 42.226-3.965 18.589 44.182 39.127 49.842 68.923 53.451 11.206 5.162 15.978-17.913 34.277-21.904 18.299-3.992 26.913 16.33 37.68 6.989 17.298-14.146 32.748-17.286 44.342-13.521 10.715 1.871 18.815 10.462 21.786 21.867 2.714 10.829.773 24.114-8.078 36.478-25.447 19.546-14.334 65.958-21.534 82.788-10.239 11.776 1.714 22.789-3.71 42.438-5.424 19.649-25.551 17.686-23.02 29.462 5.521 19.796 5.411 32.771 1.324 40.695-5.16 21.323-31.55 16.629-54.322-.557-14.931-10.199-27.693-18.802-39.719-22.662-11.517-8.907-26.218 12.485-40.814 14.276-23.488 1.703-22.378-19.182-41.975-8.546l-.549.279c-9.273 4.705-18.971 9.625-29.259 14.985-27.431 12.032-45.37 7.861-54.688-1.061-21.702-3.466-28.841-27.46-23.074-50.229 3.856-13.891 12.172-27.224 24.63-35.807 22.725-15.673 48.502-26.055 55.97-55.265 5.211-14.554-26.918-33.151-19.518-57.841 4.379-17.4 20.784-27.402 22.026-41.298 1.279-14.323 4.445-25.392 7.076-31.052z" stroke="#777" stroke-width="1.199"/><path d="M416.516 310.795c.379-21.52 26.148-14.989 31.995-.848 17.341 41.098 36.499 43.206 62.475 42.404 8.284 2.999 12.642-13.263 26.013-16.722 13.372-3.459 20.328 9.363 28.412 3.172 13.346-9.368 25.033-10.355 33.464-6.227 7.46 2.004 13.049 8.933 14.595 17.728 1.375 8.413-.979 18.453-9.06 27.414-26.381 16.18-9.943 65.289-14.313 81.368-6.658 9.561.082 17.849-5.186 31.069-5.268 13.221-20.767 11.262-20.773 17.586 1.747 11.45.328 18.41-3.561 22.304-4.316 13.342-23.51 9.166-40.73-2.701-12.008-7.222-23.004-12.767-33.601-13.713-8.851-5.233-19.968 9.845-31.196 12.071-17.318 2.289-18.114-10.806-32.503-3.242-7.638 3.676-15.397 7.195-23.401 10.78-22.35 7.801-35.768 1.011-41.138-8.754-14.189-3.397-18.51-20.43-14.073-36.541 3.167-10.206 9.48-19.935 18.72-26.305 20.46-14.123 40.283-23.025 45.69-49.47 3.579-11.496-18.215-25.954-13.725-44.463 2.483-13.66 12.971-22.4 13.96-33.454.993-11.118 4.584-19.468 7.936-23.456z" stroke="#777" stroke-width="1.199"/><path d="M437.426 336.048c2.589-11.09 18.025-7.013 21.853 2.258 16.121 38.106 33.929 36.678 56.135 31.476 5.386.848 9.338-8.655 17.822-11.589 8.484-2.935 13.801 2.437 19.225-.628 9.429-4.623 17.386-3.466 22.679 1.033 4.23 2.139 7.327 7.426 7.456 13.638.044 6.021-2.722 12.847-10.048 18.433-27.342 12.856-5.585 64.753-7.143 80.118-3.103 7.372-1.542 12.958-6.662 19.797-5.119 6.839-16.033 4.879-18.563 5.782-2.006 3.151-4.729 4.128-8.427 4.014-3.481 5.411-15.539 1.744-27.254-4.845-9.114-4.268-18.367-6.776-27.555-4.818-6.209-1.582-13.773 7.232-21.662 9.896-11.2 2.88-13.893-2.476-23.117 2.04-5.855 2.573-11.518 4.615-17.056 6.331-17.321 3.6-26.257-5.815-27.703-16.441-6.73-3.335-8.254-13.463-5.134-22.968 2.486-6.555 6.813-12.71 12.862-16.885 18.232-12.607 32.154-20.052 35.517-43.795 1.958-8.471-9.577-18.831-7.977-31.214.599-9.96 5.212-17.459 5.949-25.704.71-7.944 4.73-13.6 8.803-15.929z" stroke="#777" stroke-width="1.199"/></svg>