<svg width="819" height="764" fill="none" xmlns="http://www.w3.org/2000/svg"><path d="M193.722 1l113.505 85.448h56.753L447.926 1l75.67 40.15 113.505-26.767-11.823 148.247h75.67l22.464 95.743-52.023 106.038 105.229 39.12L818 674.288H594.537l-29.559 65.887H401.815l-75.67-46.327-173.805 68.976-56.752-49.416V584.722l-56.753-68.976 56.753-112.215V291.317L1 258.373V86.448L193.722 1z" stroke="#777" stroke-width="1.371"/><path d="M366.797 350.294l20.527-9.144h27.075l18.889 17.296 4.912 21.593 11.208 4.186 4.407 28.974h-23.801l-28.586 2.093-18.512 7.382-6.044-5.289v-45.168l-10.075-3.525v-18.398z" stroke="#777" stroke-width="1.371"/><path d="M207.825 27.166l105.563 78.523h54.47l78.216-78.21 70.575 37.727 104.963-23.877-10.725 137.673 70.712.322 20.906 89.493-47.852 98.995 96.219 36.111 37.283 249.929-207.373.081-28.384 60.9-152.037.567-70.082-42.967L169.612 735.9l-52.387-46.144V570.439l-52.387-66.085 51.999-103.719-.387-103.718L29.138 265.8V106.392l178.687-79.226z" stroke="#777" stroke-width="1.371"/><path d="M221.928 53.33l97.622 71.599h52.187l72.484-70.971 65.482 35.303 96.421-20.987-9.627 127.1 65.753.644 19.347 83.242-43.68 91.953 87.208 33.102 33.185 229.102-191.283.161-27.21 55.912-140.909 1.135-64.494-39.607-147.53 57.958-48.022-42.873V556.156l-48.021-63.195 47.246-95.222-.775-95.222-80.035-29.291v-146.89l164.651-73.005z" stroke="#777" stroke-width="1.371"/><path d="M236.031 79.496l89.68 64.674h49.904l66.754-63.734 60.387 32.881 87.879-18.099-8.529 116.528 60.794.966 17.789 76.991-39.509 84.911 78.199 30.093 29.086 208.274-175.193.241-26.036 50.925-129.782 1.703-58.905-36.246-134.394 52.448-43.655-39.601V541.872l-43.656-60.304 42.493-86.725-1.162-86.726-72.76-27.464V146.28l150.616-66.784z" stroke="#777" stroke-width="1.371"/><path d="M250.134 105.661l81.739 57.75h47.621l61.022-56.496 55.293 30.458 79.336-15.209-7.429 105.954 55.835 1.288 16.231 70.741-35.338 77.868 69.189 27.084 24.987 187.447-159.103.322-24.862 45.936L396 641.075l-53.317-32.886-121.256 46.939-39.29-36.329v-91.21l-39.29-57.413 37.74-78.229-1.55-78.23-65.484-25.637V166.224l136.581-60.563z" stroke="#777" stroke-width="1.371"/><path d="M264.237 131.827l73.796 50.825h45.338l55.292-49.257 50.199 28.034 70.794-12.32-6.332 95.382 50.877 1.61 14.672 64.49-31.167 70.826 60.179 24.075 20.889 166.619-143.013.402-23.687 40.949-107.528 2.839-47.729-29.526-108.119 41.43-34.925-33.058v-81.84l-34.924-54.523 32.987-69.733-1.937-69.733-58.208-23.811V186.169l122.546-54.342z" stroke="#777" stroke-width="1.371"/><path d="M278.34 157.992l65.855 43.901h43.055l49.561-42.019 45.105 25.611 62.251-9.43-5.233 84.808 45.918 1.932 13.114 58.24-26.996 63.783 51.17 21.065 16.79 145.792-126.923.483-22.513 35.961-96.402 3.407-42.14-26.166-94.982 35.921-30.559-29.786v-72.471l-30.559-51.632 28.234-61.237-2.325-61.237-50.931-21.984v-96.821l108.51-48.121z" stroke="#777" stroke-width="1.371"/><path d="M292.442 184.158l57.914 36.975h40.772l43.83-34.78 40.01 23.187 53.71-6.54-4.135 74.235 40.96 2.254 11.554 51.99-22.824 56.741 42.16 18.055 12.691 124.965-110.833.563-21.339 30.974-85.274 3.974-36.552-22.805-81.845 30.411-26.193-26.515v-63.101l-26.194-48.742 23.481-52.74-2.712-52.741-43.656-20.158v-84.303l94.475-41.899z" stroke="#777" stroke-width="1.371"/><path d="M306.545 210.323l49.972 30.051h38.489l38.1-27.543 34.916 20.765 45.167-3.651-3.037 63.662 36.001 2.576 9.997 45.739-18.653 49.699 33.149 15.046 8.593 104.137-94.743.644-20.165 25.986-74.147 4.542-30.963-19.445-68.708 24.902-21.828-23.243v-53.732l-21.828-45.851 18.728-44.244-3.1-44.244-36.38-18.332v-71.786l80.44-35.678z" stroke="#777" stroke-width="1.371"/><path d="M320.649 236.489l42.03 23.126h36.206l32.368-20.304 29.822 18.341 36.625-.762-1.938 53.089 31.042 2.898 8.438 39.489-14.481 42.656L544.9 407.06l4.494 83.309-78.653.725-18.99 20.997-63.02 5.11-25.375-16.084-55.571 19.392-17.462-19.971v-44.363l-17.463-42.96 13.975-35.748-3.487-35.748-29.104-16.505v-59.268l66.405-29.457z" stroke="#777" stroke-width="1.371"/><path d="M334.752 262.654l34.088 16.202h33.924l26.637-13.066 24.727 15.918 28.083 2.128-.84 42.515 26.084 3.221 6.879 33.238-10.31 35.614 15.13 9.028.395 62.482-62.563.805-17.816 16.01-51.893 5.678-19.787-12.725-42.433 13.884-13.097-16.7v-34.994l-13.097-40.069 9.222-27.252-3.875-27.251-21.828-14.679V285.89l52.37-23.236z" stroke="#777" stroke-width="1.371"/><path d="M348.854 288.819l26.147 9.277h31.641l20.906-5.828 19.634 13.495 19.54 5.017.259 31.943 21.125 3.542 5.321 26.988-6.139 28.571 6.119 6.019-3.703 41.655-46.473.885-16.642 11.022-40.765 6.246-14.199-9.364-29.297 8.374-8.731-13.429v-25.624l-8.731-37.178 4.469-18.756-4.263-18.755-14.551-12.852v-34.234l38.333-17.014z" stroke="#777" stroke-width="1.371"/><path d="M362.958 314.985l18.205 2.353h29.358l15.175 1.409 14.539 11.072 10.998 7.907 1.357 21.369 16.167 3.865 3.762 20.737-1.967 21.529-2.891 3.01-7.802 20.827-30.383.966-15.467 6.034-29.639 6.814-8.61-6.004-16.16 2.865-4.365-10.157v-16.255l-4.366-34.288-.284-10.259-4.65-10.259-7.276-11.026v-21.716l24.299-10.793z" stroke="#777" stroke-width="1.371"/></svg>