<svg width="198" height="673" fill="none" xmlns="http://www.w3.org/2000/svg"><path d="M-99.399 46.816C37.784 104.966 50.13 139.803-64.028 142.9c-130.914 7.134-119.66 41.097 35.371 96.084 152.043 51.252 163.994 86.056 34.385 96.738-80.173-2.677-67.763 30.539 35.566 96.612 105.625 74.45 116.007 105.76 35.982 95.642-137.082-2.024-127.498 30.577 35.551 95.342" stroke="#777"/><path d="M-152.667 42.732c140.881 61.283 152.843 93.775 35.884 97.479-134.14 7.887-122.178 40.38 35.885 97.478C75.84 291.187 87.8 323.68-45.014 335.167c-81.134-2.73-69.173 29.763 35.884 97.478 108.534 77.161 120.496 109.653 35.885 97.478-145.175-3.78-133.214 28.713 35.884 97.478" stroke="#777"/></svg>