<svg width="434" height="903" fill="none" xmlns="http://www.w3.org/2000/svg"><path d="M-274.144-159.455C11.114-35.37 35.334 30.422-201.485 37.92c-271.608 15.971-247.389 81.763 72.659 197.375C188.538 343.619 212.758 409.411-56.167 432.67c-164.282-5.527-140.062 60.264 72.659 197.374C236.253 786.281 260.473 852.073 89.15 827.419c-293.951-7.652-269.732 58.139 72.659 197.371" stroke="gray"/><path d="M-166.287-151.186C111.483-33.443 136.481 37.095-94.667 43.365c-265.078 14.445-242.29 83.214 71.62 194.552C284.81 341.694 309.008 412.166 46.575 433.793c-162.334-5.419-137.207 61.836 72.014 195.623 213.872 150.748 234.894 214.142 72.858 193.656-277.565-4.098-258.16 61.914 71.984 193.048" stroke="gray"/></svg>