<svg width="187" height="665" fill="none" xmlns="http://www.w3.org/2000/svg"><path d="M78.338 31.485c113.355 22.177 135.417 105.27 36.51 99.176-113.21-3.396-110.587 64.129 36.509 99.177 115.784 28.063 130.806 110.568 18.944 110.833-86.092-2.527-62.895 51.688 39.978 108.597 86.266 49.884 73.364 70.14 47.402 91.302-40.553 26.46-67.686 69.736 39.715 85.975" stroke="#777"/><path d="M144.714 37.363c108.649 18.193 131.2 104.268 35.856 97.403-109.106-4.356-107.383 65.039 35.857 97.402 109.811 25.207 124.819 110.652 17.036 109.892-84.869-2.459-61.102 52.675 39.572 107.496 82.566 46.435 67.655 65.185 47.528 88.965-30.258 28.694-60.416 72.109 39.29 83.258" stroke="#777"/><path d="M211.087 43.242C315.03 57.45 338.071 146.508 246.29 138.871c-105.003-5.315-104.179 65.95 35.204 95.629 103.838 22.349 118.831 110.734 15.128 108.95-83.645-2.392-59.308 53.662 39.167 106.395 78.864 42.986 61.945 60.23 47.652 86.628-19.961 30.927-53.145 74.481 38.867 80.541" stroke="#777"/></svg>