<svg width="1536" height="903" fill="none" xmlns="http://www.w3.org/2000/svg"><mask id="a" style="mask-type:alpha" maskUnits="userSpaceOnUse" x="0" y="0" width="1536" height="903"><path fill="#fff" fill-opacity=".5" d="M0 0h1536v902.86H0z"/></mask><g mask="url(#a)"><path d="M-261.311-159.455C14.619-35.37 38.047 30.422-191.028 37.92c-262.726 15.971-239.298 81.763 70.283 197.375C186.242 343.619 209.67 409.411-50.462 432.67c-158.909-5.527-135.481 60.264 70.283 197.374 212.576 156.237 236.003 222.029 70.283 197.375-284.339-7.652-260.911 58.139 70.283 197.371" stroke="#fff"/><path d="M-156.98-151.186C111.707-33.443 135.887 37.095-87.702 43.365-344.111 57.81-322.07 126.58-18.424 237.917c297.791 103.777 321.197 174.249 67.346 195.876-157.027-5.419-132.721 61.836 69.658 195.623 206.878 150.748 227.214 214.142 70.476 193.656-268.489-4.098-249.719 61.914 69.63 193.048" stroke="#FCFCF4"/><path d="M1499.2-12.25c152.78 16.271 189 162.76 53.19 149.376-155.34-9.986-155.45 106.415 53.19 149.376 150.67 31.023 173.73 176.375 20.36 171.903-126.9-3.699-88.55 86.979 59.67 167.582 115.72 62.928 86.57 87.976 73.55 134.157-14.88 52.777-70.62 122.315 59.19 123.862" stroke="#fff"/><path d="M1192.65-40.32c174.51 35.296 208.48 167.544 56.21 157.846-174.29-5.406-170.26 102.064 56.2 157.846 178.25 44.664 201.38 175.976 29.17 176.398-132.54-4.022-96.83 82.265 61.54 172.84 132.81 79.394 112.95 111.632 72.98 145.313-62.43 42.113-104.2 110.99 61.14 136.834" stroke="#fff"/><path d="M1294.83-30.965c167.27 28.955 201.99 165.95 55.21 155.023-167.98-6.932-165.32 103.514 55.2 155.023 169.05 40.117 192.16 176.109 26.23 174.9-130.66-3.915-94.07 83.836 60.92 171.087 127.11 73.905 104.15 103.746 73.17 141.594-46.58 45.668-93.01 114.765 60.49 132.51" stroke="#fff"/><path d="M1397.02-21.608c160.02 22.613 195.49 164.355 54.19 152.2-161.65-8.46-160.38 104.964 54.2 152.199 159.86 35.57 182.94 176.242 23.29 173.401-128.77-3.806-91.31 85.408 60.3 169.335 121.41 68.416 95.36 95.861 73.36 137.876-30.73 49.222-81.82 118.54 59.84 128.186" stroke="#fff"/></g></svg>