<svg width="313" height="86" fill="none" xmlns="http://www.w3.org/2000/svg"><g clip-path="url(#clip0_16_249)" fill-rule="evenodd" clip-rule="evenodd" fill="#000"><path d="M10.152.2c-.602.308-1.081.788-1.32 1.323-.132.292-1.835 11.482-4.372 28.718C2.175 45.772.235 58.684.15 58.934c-.239.708-.187 1.812.115 2.473.545 1.19 2.078 2.126 4.195 2.563.897.185 1.735.233 3.951.23 3.55-.007 6.283-.338 10.714-1.3 8.032-1.744 17.723-5.293 24.22-8.872.578-.318 1.065-.56 1.081-.537.017.024-1.013 4.786-2.287 10.583-1.274 5.798-2.317 10.722-2.319 10.943-.007.996.351 1.58 3.52 5.742 1.731 2.275 3.29 4.265 3.463 4.421.548.498 1.455.816 2.333.819.644.002 6.018-1.3 25.781-6.247 13.732-3.438 25.264-6.344 25.625-6.46.814-.258 1.697-1.085 2.004-1.875.127-.328 1.432-8.784 3.032-19.64a7347.904 7347.904 0 013.154-21.277c.384-2.463.363-3.195-.111-4.013-.428-.738-6.482-8.681-6.841-8.977-.602-.494-1.612-.867-2.35-.868-.543-.001-6.607 1.578-24.49 6.38-25.891 6.95-24.566 6.545-25.27 7.713-.186.307-.51 1.294-.731 2.22-.218.918-.425 1.696-.459 1.73-.034.032-8.057-7.66-17.828-17.093C20.88 8.159 12.692.34 12.456.218 11.911-.065 10.69-.074 10.152.2zm3.375 3.271c.503.261 32.696 31.275 32.977 31.77.466.818.041 2.278-.856 2.943-.416.308-.705.373-2.646.593-11.375 1.29-25.908 6.44-35.082 12.434-1.676 1.095-2.007 1.262-2.61 1.316-1.23.11-2.19-.663-2.19-1.764 0-.286 1.506-10.729 3.345-23.207C9.735 5.38 9.818 4.858 10.184 4.346c.71-.993 2.309-1.412 3.343-.875zm83.411 15.972c1.152.54 2.076 1.874 2.076 3 0 .23-.394 2.81-.876 5.734-.483 2.925-1.807 11.026-2.944 18.005-1.136 6.978-2.132 12.913-2.213 13.189-.186.638-1.109 1.619-1.802 1.916-.294.127-8.069 2.251-17.276 4.72l-22.164 5.947c-4.758 1.278-5.514 1.448-6.17 1.39-1.47-.129-2.739-1.145-3.154-2.524-.219-.73-.217-.81.053-2.125.323-1.571 3.165-14.587 3.39-15.524.14-.58.221-.67 1.173-1.29 5.406-3.524 8.228-6.607 8.24-9.004.008-1.42-.108-1.591-3.003-4.438l-2.647-2.603.3-1.366c.165-.752.373-1.581.462-1.844.23-.678.843-1.453 1.425-1.802.32-.192 8.08-2.34 21.676-6 19.26-5.186 21.256-5.7 22.048-5.667.518.02 1.088.136 1.406.286zm-15.67 11.324c-1.84.463-6.06 1.511-9.374 2.33-10.446 2.58-12.212 3.038-12.762 3.31-.63.313-1.438 1.185-1.629 1.758-.349 1.047-4.56 20.99-4.56 21.595 0 1.652 1.452 3.119 3.27 3.3.611.062 2.206-.339 13.777-3.462 7.197-1.942 13.233-3.587 13.414-3.653.499-.185 1.401-1.03 1.695-1.59.19-.362.697-3.216 1.865-10.499.882-5.5 1.604-10.29 1.604-10.644 0-.887-.527-1.878-1.307-2.457-.62-.46-1.68-.844-2.3-.835-.19.003-1.85.384-3.692.847zm1.876 11.503c1.168.495 2.024 1.562 2.161 2.695.075.625-.866 7.026-1.168 7.94-.185.559-1.08 1.523-1.665 1.793-.262.12-3.413 1.014-7 1.986-7.15 1.935-7.476 1.99-8.706 1.472-1.204-.507-2.172-1.871-2.172-3.061 0-.602 1.444-7.2 1.703-7.782.282-.635 1.083-1.413 1.738-1.691.47-.2 12.404-3.5 13.167-3.642.495-.092 1.334.033 1.942.29zm116.777-30.486c-.276.089-1.117.29-1.871.45-1.838.387-4.889 3.015-5.725 4.93-.428.98-.678 3.469-.678 6.744 0 4.44.164 5.5 1.129 7.306 1.431 2.68 2.934 3.714 6.393 4.396 6.06 1.197 11.226-1.283 12.463-5.984.718-2.73.742-9.085.043-11.492-.802-2.764-3.156-5.016-6.125-5.86-2.39-.68-4.467-.86-5.629-.49zM149.2 13.803c-1.436 3.29-8.2 20.897-8.2 21.346 0 .245 1.044.38 2.32.3 2.24-.142 2.349-.22 3.198-2.306l.878-2.16 10.562-.271.838 2.415c.836 2.408.845 2.415 3.025 2.415 1.203 0 2.284-.162 2.403-.36.233-.387-7.687-20.847-8.627-22.287-.423-.649-1.199-.866-3.094-.866-2.441 0-2.554.06-3.303 1.774zm18.712-1.454c-.184.175-.335 5.466-.335 11.757v11.436h4.488l.276-15.088 10.359 15.14 4.183-.292V12.27h-4.513l-.501 14.803-3.951-5.962c-5.794-8.743-6.093-9.081-8.026-9.081-.906 0-1.797.144-1.98.32zm46.646-.01c-.563.538-.393 2.811.257 3.433.34.326 1.97.576 3.75.576h3.149l.271 18.954h4.514l.271-18.954h3.49c3.275 0 3.509-.072 3.796-1.162.768-2.93.848-2.905-9.601-3.047-5.254-.072-9.708.018-9.897.2zm23.223 23.203h4.513v-9.597h10.495l.287 9.357h4.513V12.27h-4.513l-.288 9.39-10.243-.273-.287-9.357h-4.477v23.513zm25.575 0h8.491c8.05 0 8.507-.05 8.809-.96.175-.527.175-1.391 0-1.919-.296-.892-.759-.96-6.553-.96h-6.234v-6.238h11.594l-.311-3.599-11.283-.272v-5.726h12.597l-.311-3.6-16.799-.262v23.536zm21.788-22.903c-.135.336-.185 5.572-.11 11.637l.135 11.026 4.764.293v-8.69h4.905l4.873 8.397 2.382.147c1.704.104 2.382-.033 2.38-.48-.002-.345-1.099-2.459-2.439-4.698l-2.436-4.072 2.024-1.72c1.866-1.584 2.039-1.94 2.215-4.565.241-3.568-.937-5.608-4.011-6.943-1.717-.745-3.293-.923-8.279-.932-4.529-.007-6.223.152-6.403.6zm-81.177 3.451c2.607 1.043 3.385 3.216 3.132 8.75-.173 3.796-.366 4.6-1.343 5.595-1.413 1.439-3.395 1.852-5.816 1.212-2.555-.675-3.278-2.499-3.278-8.261 0-3.88.149-4.692 1.072-5.814 1.782-2.167 3.498-2.575 6.233-1.482zm93.989.738c1.319 1.262 1.326 3.89.013 5.027-.675.585-2.109.934-4.513 1.098l-3.523.242v-7.327h3.51c2.842 0 3.701.183 4.513.96zm-141.417 9.957c.004.066-1.686.12-3.755.12-2.068 0-3.761-.201-3.761-.448 0-.359 1.624-4.832 3.32-9.15.162-.41 1.122 1.443 2.236 4.32 1.075 2.77 1.957 5.091 1.96 5.158zm151.697 8.517l4.764.293v-4.851h-5.07l.306 4.558zM143.231 52.468c-.134.335-.184 5.572-.109 11.637l.135 11.026h7.02c8.264 0 9.783-.53 11.659-4.072.961-1.815 1.128-2.89 1.128-7.275 0-5.465-.407-7.156-2.165-8.99-2.196-2.294-4.586-2.914-11.264-2.926-4.529-.008-6.224.151-6.404.6zm24.848 22.903h8.491c8.05 0 8.507-.05 8.809-.96.175-.528.175-1.391 0-1.92-.296-.891-.759-.959-6.553-.959h-6.234v-6.238h11.594l-.311-3.6-11.283-.27v-5.727h12.597l-.311-3.6-16.799-.263v23.537zm19.965-23.264c-.169.161 1.494 5.462 3.697 11.779l4.004 11.485h2.653c1.525 0 2.865-.255 3.149-.6.745-.903 8.096-22.328 7.768-22.642-.543-.52-4.009-.267-4.517.328-.282.33-1.704 4.217-3.163 8.638-1.457 4.421-2.779 8.038-2.936 8.038-.158 0-1.64-3.833-3.293-8.518l-3.007-8.518-2.023-.142c-1.114-.078-2.163-.01-2.332.152zm-31.194 5.188c1.088 1.21 1.199 1.767 1.193 5.986-.004 2.559-.145 5.147-.315 5.75-.457 1.633-2.687 2.501-6.423 2.501h-3.285v-15.94l3.815.184c3.433.166 3.936.318 5.015 1.519z"/></g><defs><clipPath id="clip0_16_249"><path fill="#fff" d="M0 0h313v86H0z"/></clipPath></defs></svg>